<?xml version="1.0" standalone="no"?>
<!DOCTYPE svg PUBLIC "-//W3C//DTD SVG 20010904//EN"
 "http://www.w3.org/TR/2001/REC-SVG-20010904/DTD/svg10.dtd">
<svg version="1.0" xmlns="http://www.w3.org/2000/svg"
 width="1885.000000pt" height="2000.000000pt" viewBox="0 0 1885.000000 2000.000000"
 preserveAspectRatio="xMidYMid meet">

<g transform="translate(0.000000,2000.000000) scale(0.100000,-0.100000)"
fill="#000000" stroke="none">
<path d="M17463 11415 c0 -3001 -3 -5459 -7 -5463 -4 -4 -3247 -9 -7206 -11
l-7198 -3 -691 -416 -691 -416 0 -2082 c0 -2254 -2 -2156 53 -2319 129 -377
447 -637 837 -685 58 -7 2659 -10 8187 -10 l8103 0 0 8430 0 8430 -694 0 -693
0 0 -5455z m-10595 -7075 c30 -118 164 -648 296 -1177 l241 -962 79 297 c151
569 204 771 365 1382 89 338 167 630 172 648 l11 32 449 0 449 0 0 -1480 0
-1480 -350 0 c-192 0 -351 1 -352 3 0 1 -4 421 -7 932 l-6 930 -62 -250 c-34
-137 -115 -450 -179 -695 -64 -245 -143 -548 -176 -675 -32 -126 -63 -233 -67
-238 -4 -4 -162 -6 -352 -5 l-344 3 -27 105 c-16 58 -93 350 -172 650 -79 300
-181 689 -227 865 l-84 319 -5 -969 -5 -970 -317 -3 -318 -2 0 1480 0 1480
467 -2 467 -3 54 -215z m4239 214 c28 -6 32 -12 65 -122 403 -1324 848 -2805
848 -2821 0 -8 -104 -11 -375 -11 l-374 0 -20 68 c-11 37 -52 183 -92 325
l-72 257 -440 -2 -441 -3 -81 -320 -82 -320 -366 -3 c-329 -2 -367 -1 -367 14
0 15 828 2921 837 2937 5 8 917 10 960 1z m2273 -458 c135 -255 248 -462 252
-460 10 6 144 246 332 594 l175 325 391 3 c352 2 392 1 386 -13 -3 -9 -190
-308 -416 -666 l-410 -649 463 -808 c255 -444 462 -811 460 -815 -8 -13 -809
-8 -825 6 -8 7 -133 244 -278 527 -282 552 -289 565 -300 553 -4 -4 -55 -100
-113 -213 -58 -113 -185 -356 -281 -540 l-174 -335 -407 -3 c-353 -2 -406 0
-402 12 3 8 212 358 463 778 251 420 457 768 457 774 0 6 -183 316 -407 689
-225 374 -410 685 -413 692 -4 11 72 13 398 13 l404 0 245 -464z"/>
<path d="M10628 4013 c-3 -16 -64 -278 -136 -583 -72 -305 -134 -572 -137
-592 l-7 -38 297 0 298 0 -6 28 c-4 15 -38 158 -77 317 -38 160 -103 426 -143
592 -39 167 -75 303 -78 303 -4 0 -9 -12 -11 -27z"/>
</g>
</svg>
